<svg display="none" width="0" height="0" version="1.1" xmlns="http://www.w3.org/2000/svg" xmlns:xlink="http://www.w3.org/1999/xlink">
<defs>
<symbol id="icon-file" viewBox="0 0 1024 1024">
	<title>file</title>
	<path class="path1" d="M709.818 0h-523.636c-51.386 0-93.091 41.705-93.091 93.091v837.818c0 51.386 41.705 93.091 93.091 93.091h651.636c51.386 0 93.091-41.705 93.091-93.091v-709.818l-221.091-221.091zM698.182 115.107l116.55 117.62h-116.55v-117.62zM837.818 930.909h-651.636v-837.818h418.909v232.727h232.727v605.091z"></path>
</symbol>
<symbol id="icon-article" viewBox="0 0 1024 1024">
	<title>article</title>
	<path class="path1" d="M837.818 1024h-651.636c-51.386 0-93.091-41.705-93.091-93.091v-837.818c0-51.386 41.705-93.091 93.091-93.091h651.636c51.386 0 93.091 41.705 93.091 93.091v837.818c0 51.386-41.705 93.091-93.091 93.091zM837.818 93.091h-651.636v837.818h651.636v-837.818zM418.909 279.273h-139.636v-93.091h139.636v93.091zM418.909 465.455h-139.636v-93.091h139.636v93.091zM744.727 651.636h-465.455v-93.091h465.455v93.091zM744.727 837.818h-465.455v-93.091h465.455v93.091zM512 186.182h232.727v279.273h-232.727v-279.273z"></path>
</symbol>
<symbol id="icon-dot-single" viewBox="0 0 1024 1024">
	<title>dot-single</title>
	<path class="path1" d="M399.36 512c0 62.208 50.483 112.64 112.691 112.64s112.589-50.483 112.589-112.64c0-62.208-50.381-112.589-112.589-112.589s-112.691 50.381-112.691 112.589z"></path>
</symbol>
<symbol id="icon-flow-line" viewBox="0 0 1024 1024">
	<title>flow-line</title>
	<path class="path1" d="M563.2 707.789v-391.578c42.24-19.456 71.68-61.85 71.68-111.411 0-67.891-54.989-122.88-122.88-122.88s-122.88 54.989-122.88 122.88c0 49.51 29.491 91.955 71.68 111.411v391.629c-42.24 19.405-71.68 61.85-71.68 111.36 0 67.891 54.989 122.88 122.88 122.88s122.88-55.040 122.88-122.88c0-49.51-29.44-91.955-71.68-111.411zM512 133.888c39.117 0 70.861 31.693 70.861 70.912 0 39.117-31.744 70.912-70.861 70.912-39.168 0-70.861-31.795-70.861-70.912 0-39.219 31.693-70.912 70.861-70.912zM512 890.112c-39.219 0-70.912-31.795-70.912-70.912 0-39.219 31.693-70.912 70.912-70.912 39.117 0 70.861 31.693 70.861 70.912 0 39.117-31.744 70.912-70.861 70.912z"></path>
</symbol>
<symbol id="icon-flow-tree" viewBox="0 0 1024 1024">
	<title>flow-tree</title>
	<path class="path1" d="M921.6 758.989v-118.989c0-98.97-80.23-179.2-179.2-179.2h-102.4c-42.394 0-76.8-34.406-76.8-76.8v-118.989c42.24-19.456 71.68-61.85 71.68-111.411 0-67.891-54.989-122.88-122.88-122.88s-122.88 54.989-122.88 122.88c0 49.51 29.491 91.955 71.68 111.411v118.989c0 42.394-34.406 76.8-76.8 76.8h-102.4c-98.97 0-179.2 80.23-179.2 179.2v118.989c-42.24 19.456-71.68 61.901-71.68 111.411 0 67.891 54.989 122.88 122.88 122.88s122.88-55.040 122.88-122.88c0-49.51-29.491-91.955-71.68-111.411v-118.989c0-42.394 34.406-76.8 76.8-76.8h102.4c27.597 0 53.453-6.758 76.8-17.92v213.709c-42.24 19.456-71.68 61.901-71.68 111.411 0 67.891 54.989 122.88 122.88 122.88s122.88-55.040 122.88-122.88c0-49.51-29.491-91.955-71.68-111.411v-213.709c23.347 11.162 49.203 17.92 76.8 17.92h102.4c42.394 0 76.8 34.406 76.8 76.8v118.989c-42.24 19.456-71.68 61.85-71.68 111.411 0 67.891 54.989 122.88 122.88 122.88s122.88-55.040 122.88-122.88c0-49.51-29.44-91.955-71.68-111.411zM512 82.688c39.117 0 70.861 31.693 70.861 70.912 0 39.117-31.744 70.912-70.861 70.912-39.168 0-70.861-31.795-70.861-70.912 0-39.219 31.693-70.912 70.861-70.912zM153.6 941.312c-39.219 0-70.912-31.795-70.912-70.912 0-39.219 31.693-70.912 70.912-70.912 39.117 0 70.861 31.693 70.861 70.912 0 39.117-31.744 70.912-70.861 70.912zM512 941.312c-39.219 0-70.912-31.795-70.912-70.912 0-39.219 31.693-70.912 70.912-70.912 39.117 0 70.861 31.693 70.861 70.912 0 39.117-31.744 70.912-70.861 70.912zM870.4 941.312c-39.219 0-70.912-31.795-70.912-70.912 0-39.219 31.693-70.912 70.912-70.912 39.117 0 70.861 31.693 70.861 70.912 0 39.117-31.744 70.912-70.861 70.912z"></path>
</symbol>
<symbol id="icon-code" viewBox="0 0 1024 1024">
	<title>code</title>
	<path class="path1" d="M292.813 755.2c-12.083 0-24.269-4.25-33.997-12.902l-259.072-230.298 273.459-243.098c21.094-18.688 53.453-16.896 72.243 4.25s16.896 53.504-4.25 72.294l-187.341 166.554 172.954 153.702c21.146 18.79 23.040 51.149 4.25 72.294-10.086 11.418-24.166 17.203-38.246 17.203zM750.797 755.098l273.459-243.098-259.072-230.298c-21.146-18.79-53.504-16.896-72.243 4.25-18.79 21.146-16.896 53.504 4.25 72.294l172.954 153.754-187.341 166.502c-21.146 18.79-23.040 51.149-4.25 72.294 10.086 11.418 24.166 17.203 38.246 17.203 12.083 0 24.269-4.25 33.997-12.902zM511.283 827.648l102.4-614.4c4.659-27.904-14.182-54.272-42.086-58.931-28.006-4.71-54.323 14.182-58.88 42.086l-102.4 614.4c-4.659 27.904 14.182 54.272 42.086 58.931 2.867 0.461 5.632 0.666 8.448 0.666 24.576 0 46.285-17.766 50.432-42.752z"></path>
</symbol>
<symbol id="icon-format-align-justify" viewBox="0 0 1024 1024">
	<title>format-align-justify</title>
	<path class="path1" d="M128 896h768v-85.333h-768v85.333zM128 725.333h768v-85.333h-768v85.333zM128 554.667h768v-85.333h-768v85.333zM128 384h768v-85.333h-768v85.333zM128 128v85.333h768v-85.333h-768z"></path>
</symbol>
<symbol id="icon-desktop-windows" viewBox="0 0 1024 1024">
	<title>desktop-windows</title>
	<path class="path1" d="M896 85.333h-768c-47.147 0-85.333 38.187-85.333 85.333v512c0 47.147 38.187 85.333 85.333 85.333h298.667v85.333h-85.333v85.333h341.333v-85.333h-85.333v-85.333h298.667c47.147 0 85.333-38.187 85.333-85.333v-512c0-47.147-38.187-85.333-85.333-85.333zM896 682.667h-768v-512h768v512z"></path>
</symbol>
<symbol id="icon-laptop-chromebook" viewBox="0 0 1024 1024">
	<title>laptop-chromebook</title>
	<path class="path1" d="M938.667 768v-640h-853.333v640h-85.333v85.333h1024v-85.333h-85.333zM597.333 768h-170.667v-42.667h170.667v42.667zM853.333 640h-682.667v-426.667h682.667v426.667z"></path>
</symbol>
<symbol id="icon-phone-android" viewBox="0 0 1024 1024">
	<title>phone-android</title>
	<path class="path1" d="M682.667 42.667h-341.333c-70.613 0-128 57.387-128 128v682.667c0 70.613 57.387 128 128 128h341.333c70.613 0 128-57.387 128-128v-682.667c0-70.613-57.387-128-128-128zM597.333 896h-170.667v-42.667h170.667v42.667zM736 768h-448v-597.333h448v597.333z"></path>
</symbol>
<symbol id="icon-phone-iphone" viewBox="0 0 1024 1024">
	<title>phone-iphone</title>
	<path class="path1" d="M661.333 42.667h-341.333c-58.88 0-106.667 47.787-106.667 106.667v725.333c0 58.88 47.787 106.667 106.667 106.667h341.333c58.88 0 106.667-47.787 106.667-106.667v-725.333c0-58.88-47.787-106.667-106.667-106.667zM490.667 938.667c-35.413 0-64-28.587-64-64s28.587-64 64-64 64 28.587 64 64-28.587 64-64 64zM682.667 768h-384v-597.333h384v597.333z"></path>
</symbol>
<symbol id="icon-tablet-android" viewBox="0 0 1024 1024">
	<title>tablet-android</title>
	<path class="path1" d="M768 0h-512c-70.613 0-128 57.387-128 128v768c0 70.613 57.387 128 128 128h512c70.613 0 128-57.387 128-128v-768c0-70.613-57.387-128-128-128zM597.333 938.667h-170.667v-42.667h170.667v42.667zM821.333 810.667h-618.667v-682.667h618.667v682.667z"></path>
</symbol>
</defs>
</svg>
